<?xml version="1.0" encoding="UTF-8"?>
<svg width="13px" height="13px" viewBox="0 0 13 13" version="1.1" xmlns="http://www.w3.org/2000/svg" xmlns:xlink="http://www.w3.org/1999/xlink">
    <!-- Generator: Sketch 43.2 (39069) - http://www.bohemiancoding.com/sketch -->
    <title>dimensions</title>
    <desc>Created with Sketch.</desc>
    <defs></defs>
    <g id="Page-1" stroke="none" stroke-width="1" fill="none" fill-rule="evenodd">
        <g id="dimensions" fill="#000000">
            <g id="Box-Corner" transform="translate(1.000000, 1.000000)">
                <path d="M0.5,0 L3,0 L3,1 L1,1 L1,3 L0,3 L0,0 L0.5,0 Z" id="Combined-Shape"></path>
            </g>
            <g id="Box-Corner" transform="translate(10.500000, 2.500000) rotate(90.000000) translate(-10.500000, -2.500000) translate(9.000000, 1.000000)">
                <path d="M0.5,0 L3,0 L3,1 L1,1 L1,3 L0,3 L0,0 L0.5,0 Z" id="Combined-Shape"></path>
            </g>
            <g id="Box-Corner" transform="translate(10.500000, 10.500000) rotate(180.000000) translate(-10.500000, -10.500000) translate(9.000000, 9.000000)">
                <path d="M0.5,0 L3,0 L3,1 L1,1 L1,3 L0,3 L0,0 L0.5,0 Z" id="Combined-Shape"></path>
            </g>
            <g id="Box-Corner" transform="translate(2.500000, 10.500000) rotate(270.000000) translate(-2.500000, -10.500000) translate(1.000000, 9.000000)">
                <path d="M0.5,0 L3,0 L3,1 L1,1 L1,3 L0,3 L0,0 L0.5,0 Z" id="Combined-Shape"></path>
            </g>
            <g id="Box-Side" transform="translate(1.000000, 5.000000)">
                <rect id="Rectangle-3" x="0" y="0" width="1" height="3"></rect>
            </g>
            <g id="Box-Side" transform="translate(11.000000, 5.000000)">
                <rect id="Rectangle-3" x="0" y="0" width="1" height="3"></rect>
            </g>
            <g id="Box-Side" transform="translate(6.500000, 1.500000) rotate(90.000000) translate(-6.500000, -1.500000) translate(6.000000, 0.000000)">
                <rect id="Rectangle-3" x="0" y="0" width="1" height="3"></rect>
            </g>
            <g id="Box-Side" transform="translate(6.500000, 11.500000) rotate(90.000000) translate(-6.500000, -11.500000) translate(6.000000, 10.000000)">
                <rect id="Rectangle-3" x="0" y="0" width="1" height="3"></rect>
            </g>
        </g>
    </g>
</svg>