<?xml version="1.0" encoding="UTF-8" standalone="no"?>
<svg width="24px" height="18px" viewBox="0 0 24 18" version="1.1" xmlns="http://www.w3.org/2000/svg" xmlns:xlink="http://www.w3.org/1999/xlink">
    <!-- Generator: Sketch 41.2 (35397) - http://www.bohemiancoding.com/sketch -->
    <title>Shape</title>
    <desc>Created with Sketch.</desc>
    <defs></defs>
    <g id="Page-1" stroke="none" stroke-width="1" fill="none" fill-rule="evenodd">
        <path d="M7,16 L3,16 L3,14 L7,14 L7,12 L17,12 L17,14 L21,14 L21,16 L17,16 L17,18 L7,18 L7,16 Z M4,4 L9.68921912e-16,4 L9.68921912e-16,2 L0,2 L4,2 L4,0 L4,8.19857003e-16 L20,8.19857003e-16 L20,2 L24,2 L24,4 L20,4 L20,6 L4,6 L4,4 Z" id="Shape" fill="#000000"></path>
    </g>
</svg>