<?xml version="1.0" encoding="UTF-8" standalone="no"?>
<svg width="18px" height="24px" viewBox="0 0 18 24" version="1.1" xmlns="http://www.w3.org/2000/svg" xmlns:xlink="http://www.w3.org/1999/xlink">
    <!-- Generator: Sketch 41.2 (35397) - http://www.bohemiancoding.com/sketch -->
    <title>Shape</title>
    <desc>Created with Sketch.</desc>
    <defs></defs>
    <g id="Page-1" stroke="none" stroke-width="1" fill="none" fill-rule="evenodd">
        <path d="M4,19 L1.77635684e-15,19 L1.77635684e-15,17 L4,17 L4,15 L14,15 L14,17 L18,17 L18,19 L14,19 L14,21 L4,21 L4,19 Z M1,7 L-3,7 L-3,5 L-3,5 L1,5 L1,3 L1,3 L17,3 L17,5 L21,5 L21,7 L17,7 L17,9 L1,9 L1,7 Z" id="Shape" fill="#000000" transform="translate(9.000000, 12.000000) rotate(-270.000000) translate(-9.000000, -12.000000) "></path>
    </g>
</svg>