<?xml version="1.0" encoding="UTF-8"?>
<svg width="50px" height="50px" viewBox="0 0 50 50" version="1.1" xmlns="http://www.w3.org/2000/svg" xmlns:xlink="http://www.w3.org/1999/xlink">
    <!-- Generator: Sketch 43.2 (39069) - http://www.bohemiancoding.com/sketch -->
    <title>download</title>
    <desc>Created with Sketch.</desc>
    <defs></defs>
    <g id="Page-1" stroke="none" stroke-width="1" fill="none" fill-rule="evenodd">
        <g id="download" fill-rule="nonzero" fill="#000000">
            <path d="M46.4813564,31.5481551 L39.1580219,26.6215172 L34.6430761,26.6215172 L42.4635158,32.6209459 L34.3099643,32.6209459 C34.0759319,32.6209459 33.8658152,32.7405245 33.7581945,32.9267254 L31.8808106,38.0668965 L18.117315,38.0668965 L16.2382229,32.9267254 C16.1340187,32.7405245 15.9204855,32.6209459 15.6864531,32.6209459 L7.53460986,32.6209459 L15.3567579,26.6215172 L10.8401037,26.6215172 L3.51847752,31.5481551 C2.42860409,32.1990043 1.77775491,33.7005697 2.06986832,34.8809812 L3.35960882,41.9514924 C3.65172223,43.1336121 4.9482958,44.1021987 6.23632803,44.1021987 L43.7583811,44.1021987 C45.0515381,44.1021987 46.3464034,43.1336121 46.6385168,41.9514924 L47.9282573,34.8809812 C48.2254955,33.6988614 47.5712298,32.1990043 46.4813564,31.5481551 L46.4813564,31.5481551 Z M36.9611924,16.7767828 L29.367952,16.7767828 L29.367952,5 L20.6267571,5 L20.6267571,16.7767828 L13.0369332,16.7767828 L24.9982087,28.0017958 L36.9611924,16.7767828 Z" id="Shape"></path>
        </g>
    </g>
</svg>