<?xml version="1.0" encoding="utf-8"?>
<!-- Generated by IcoMoon.io -->
<!DOCTYPE svg PUBLIC "-//W3C//DTD SVG 1.1//EN" "http://www.w3.org/Graphics/SVG/1.1/DTD/svg11.dtd">
<svg version="1.1" xmlns="http://www.w3.org/2000/svg" xmlns:xlink="http://www.w3.org/1999/xlink" width="32" height="32" viewBox="0 0 32 32">
<path d="M28.576 20.899l-4.287-2.884h-2.643l4.578 3.512h-4.773c-0.137 0-0.26 0.070-0.323 0.179l-1.099 3.009h-8.057l-1.1-3.009c-0.061-0.109-0.186-0.179-0.323-0.179h-4.772l4.579-3.512-2.644 0-4.286 2.884c-0.638 0.381-1.019 1.26-0.848 1.951l0.755 4.139c0.171 0.692 0.93 1.259 1.684 1.259h21.965c0.757 0 1.515-0.567 1.686-1.259l0.755-4.139c0.174-0.692-0.209-1.57-0.847-1.951zM23.003 12.252h-4.445v-6.894h-5.117v6.894h-4.443l7.002 6.571 7.003-6.571z"></path>
</svg>
