<?xml version="1.0" encoding="UTF-8"?>
<svg width="50px" height="50px" viewBox="0 0 50 50" version="1.1" xmlns="http://www.w3.org/2000/svg" xmlns:xlink="http://www.w3.org/1999/xlink">
    <!-- Generator: Sketch 43.2 (39069) - http://www.bohemiancoding.com/sketch -->
    <title>keyboard</title>
    <desc>Created with Sketch.</desc>
    <defs></defs>
    <g id="Page-1" stroke="none" stroke-width="1" fill="none" fill-rule="evenodd">
        <g id="keyboard" fill-rule="nonzero" fill="#000000">
            <path d="M41.1646246,49 L12.52081,49 C10.0221376,49 8,46.9731597 8,44.4744873 L8,15.5375412 C8,13.0388688 10.0237052,11.0120285 12.52081,11.0120285 L13.8422534,11.0606225 C13.8422534,8.99302601 13.9143607,7.90828241 15.3110464,6.34386897 C16.7045971,4.78102307 18.4367382,3.99881634 20.5027672,3.99881634 C21.482485,3.99881634 22.5703637,4.16497649 23.7601331,4.49572923 C23.7601331,4.49572923 26.3497233,5.35944848 28.1477015,5.35944848 C30.892479,5.35944848 32.7625644,4.1524361 33.7595253,1.73997889 C34.2266547,0.579992962 34.7016219,0 35.1859944,0 C35.8788509,0 36.2268467,0.322915 36.2268467,0.971880099 C36.2268467,2.11775809 35.607665,3.38590486 34.3724367,4.77161777 C32.7139704,6.65737867 30.6730222,7.59947535 28.2480246,7.59947535 C26.3653988,7.59947535 23.1378163,6.71381042 23.1378163,6.71381042 C21.8273457,6.39559807 20.8930868,6.23727566 20.3366071,6.23727566 C18.9947855,6.23727566 17.8457724,6.81099843 16.8895678,7.96001152 C15.9333632,9.1090246 15.8534182,9.64669375 15.8534182,11.076298 L41.1677597,11.0433795 L41.1959756,13.2740011 L12.5192425,13.2740011 C11.2683387,13.2740011 10.2588375,14.2850699 10.2588375,15.5375412 L10.2588375,44.4729198 C10.2588375,45.722256 11.2699063,46.7364599 12.5192425,46.7364599 L41.1411114,46.7364599 L41.163057,49 L41.1646246,49 Z M14.555488,16.8950382 L18.4116574,16.8950382 C18.7314373,16.8950382 18.9900829,17.1536837 18.9900829,17.4734636 L18.9900829,21.3296331 C18.9900829,21.649413 18.7314373,21.9080585 18.4116574,21.9080585 L14.555488,21.9080585 C14.2357081,21.9080585 13.9770626,21.649413 13.9770626,21.3296331 L13.9770626,17.4718961 C13.9770626,17.1521162 14.2357081,16.8934707 14.555488,16.8934707 L14.555488,16.8950382 Z M21.0153556,16.8950382 L24.871525,16.8950382 C25.1913049,16.8950382 25.4499504,17.1536837 25.4499504,17.4734636 L25.4499504,21.3296331 C25.4499504,21.649413 25.1913049,21.9080585 24.871525,21.9080585 L21.0153556,21.9080585 C20.6955757,21.9080585 20.4369302,21.649413 20.4369302,21.3296331 L20.4369302,17.4718961 C20.4369302,17.1521162 20.6955757,16.8934707 21.0153556,16.8934707 L21.0153556,16.8950382 Z M27.4501424,16.8950382 L31.3063118,16.8950382 C31.6260917,16.8950382 31.8847372,17.1536837 31.8847372,17.4734636 L31.8847372,21.3296331 C31.8847372,21.649413 31.6260917,21.9080585 31.3063118,21.9080585 L27.4501424,21.9080585 C27.1303625,21.9080585 26.8717169,21.649413 26.8717169,21.3296331 L26.8717169,17.4718961 C26.8717169,17.1521162 27.13193,16.8934707 27.4501424,16.8934707 L27.4501424,16.8950382 Z M33.7156339,16.8950382 L37.5718033,16.8950382 C37.8915832,16.8950382 38.1502287,17.1536837 38.1502287,17.4734636 L38.1502287,21.3296331 C38.1502287,21.649413 37.8915832,21.9080585 37.5718033,21.9080585 L33.7156339,21.9080585 C33.395854,21.9080585 33.1372085,21.649413 33.1372085,21.3296331 L33.1372085,17.4718961 C33.1372085,17.1521162 33.395854,16.8934707 33.7156339,16.8934707 L33.7156339,16.8950382 Z M14.555488,23.1135033 L21.6408074,23.1135033 C21.9605874,23.1135033 22.2192329,23.3721488 22.2192329,23.6919287 L22.2192329,27.5480981 C22.2192329,27.8678781 21.9605874,28.1265236 21.6408074,28.1265236 L14.555488,28.1265236 C14.2357081,28.1265236 13.9770626,27.8678781 13.9770626,27.5480981 L13.9770626,23.6919287 C13.9770626,23.3721488 14.2357081,23.1135033 14.555488,23.1135033 Z M24.0031031,23.1135033 L27.8592725,23.1135033 C28.1790524,23.1135033 28.4376979,23.3721488 28.4376979,23.6919287 L28.4376979,27.5480981 C28.4376979,27.8678781 28.1790524,28.1265236 27.8592725,28.1265236 L24.0031031,28.1265236 C23.6833232,28.1265236 23.4246777,27.8678781 23.4246777,27.5480981 L23.4246777,23.6919287 C23.4246777,23.3721488 23.6833232,23.1135033 24.0031031,23.1135033 Z M30.4143767,23.1135033 L34.2705461,23.1135033 C34.590326,23.1135033 34.8489715,23.3721488 34.8489715,23.6919287 L34.8489715,27.5480981 C34.8489715,27.8678781 34.590326,28.1265236 34.2705461,28.1265236 L30.4143767,28.1265236 C30.0945968,28.1265236 29.8359512,27.8678781 29.8359512,27.5480981 L29.8359512,23.6919287 C29.8375188,23.3721488 30.0961643,23.1135033 30.4143767,23.1135033 Z M14.555488,29.4761829 L24.871525,29.4761829 C25.1913049,29.4761829 25.4499504,29.7348284 25.4499504,30.0546083 L25.4499504,33.9107777 C25.4499504,34.2305576 25.1913049,34.4892031 24.871525,34.4892031 L14.555488,34.4892031 C14.2357081,34.4892031 13.9770626,34.2305576 13.9770626,33.9107777 L13.9770626,30.0546083 C13.9770626,29.7348284 14.2357081,29.4761829 14.555488,29.4761829 Z M27.3780351,29.4761829 L31.2342045,29.4761829 C31.5539845,29.4761829 31.81263,29.7348284 31.81263,30.0546083 L31.81263,33.9107777 C31.81263,34.2305576 31.5539845,34.4892031 31.2342045,34.4892031 L27.3780351,34.4892031 C27.0582552,34.4892031 26.7996097,34.2305576 26.7996097,33.9107777 L26.7996097,30.0546083 C26.7996097,29.7348284 27.0582552,29.4761829 27.3780351,29.4761829 L27.3780351,29.4761829 Z M33.6921207,29.4761829 L37.5482901,29.4761829 C37.86807,29.4761829 38.1267155,29.7348284 38.1267155,30.0546083 L38.1267155,33.9107777 C38.1267155,34.2305576 37.86807,34.4892031 37.5482901,34.4892031 L33.6921207,34.4892031 C33.3723408,34.4892031 33.1136953,34.2305576 33.1136953,33.9107777 L33.1136953,30.0546083 C33.1152628,29.7348284 33.3739083,29.4761829 33.6921207,29.4761829 Z M39.9591798,29.4761829 L41.1160306,29.4761829 L41.1160306,34.4892031 L39.9591798,34.4892031 C39.6393999,34.4892031 39.3807543,34.2305576 39.3807543,33.9107777 L39.3807543,30.0546083 C39.3807543,29.7348284 39.6393999,29.4761829 39.9591798,29.4761829 Z M14.555488,36.0316709 L19.3756998,36.0316709 C19.6954797,36.0316709 19.9541252,36.2903164 19.9541252,36.6100963 L19.9541252,40.4662657 C19.9541252,40.7860456 19.6954797,41.0446911 19.3756998,41.0446911 L14.555488,41.0446911 C14.2357081,41.0446911 13.9770626,40.7860456 13.9770626,40.4662657 L13.9770626,36.6100963 C13.9770626,36.2903164 14.2357081,36.0316709 14.555488,36.0316709 Z M21.9778304,36.0316709 L25.9782143,36.0316709 C26.2979942,36.0316709 26.5566397,36.2903164 26.5566397,36.6100963 L26.5566397,40.4662657 C26.5566397,40.7860456 26.2979942,41.0446911 25.9782143,41.0446911 L21.9778304,41.0446911 C21.6580505,41.0446911 21.399405,40.7860456 21.399405,40.4662657 L21.399405,36.6100963 C21.399405,36.2903164 21.659618,36.0316709 21.9778304,36.0316709 Z M28.4862919,36.0316709 L41.1160306,36.0316709 L41.1160306,41.0446911 L28.4862919,41.0446911 C28.166512,41.0446911 27.9078665,40.7860456 27.9078665,40.4662657 L27.9078665,36.6100963 C27.9078665,36.2903164 28.166512,36.0316709 28.4862919,36.0316709 Z M40.031287,17.0392527 L41.1395438,17.0392527 L41.1395438,22.0522729 L40.031287,22.0522729 C39.7115071,22.0522729 39.4528616,21.7936274 39.4528616,21.4738475 L39.4528616,17.6176781 C39.4528616,17.2994658 39.7115071,17.0392527 40.031287,17.0392527 Z M36.6814357,23.1135033 L40.5376052,23.1135033 C40.8573851,23.1135033 41.1160306,23.3721488 41.1160306,23.6919287 L41.1160306,27.5480981 C41.1160306,27.8678781 40.8573851,28.1265236 40.5376052,28.1265236 L36.6814357,28.1265236 C36.3616558,28.1265236 36.1030103,27.8678781 36.1030103,27.5480981 L36.1030103,23.6919287 C36.1030103,23.3721488 36.3616558,23.1135033 36.6814357,23.1135033 Z" id="Shape"></path>
        </g>
    </g>
</svg>