<?xml version="1.0" encoding="utf-8"?>
<!-- Generated by IcoMoon.io -->
<!DOCTYPE svg PUBLIC "-//W3C//DTD SVG 1.1//EN" "http://www.w3.org/Graphics/SVG/1.1/DTD/svg11.dtd">
<svg version="1.1" xmlns="http://www.w3.org/2000/svg" xmlns:xlink="http://www.w3.org/1999/xlink" width="22" height="32" viewBox="0 0 22 32">
<path d="M21.433 31.63h-18.273c-1.594 0-2.884-1.293-2.884-2.887v-18.46c0-1.594 1.291-2.887 2.884-2.887l0.843 0.031c0-1.319 0.046-2.011 0.937-3.009 0.889-0.997 1.994-1.496 3.312-1.496 0.625 0 1.319 0.106 2.078 0.317 0 0 1.652 0.551 2.799 0.551 1.751 0 2.944-0.77 3.58-2.309 0.298-0.74 0.601-1.11 0.91-1.11 0.442 0 0.664 0.206 0.664 0.62 0 0.731-0.395 1.54-1.183 2.424-1.058 1.203-2.36 1.804-3.907 1.804-1.201 0-3.26-0.565-3.26-0.565-0.836-0.203-1.432-0.304-1.787-0.304-0.856 0-1.589 0.366-2.199 1.099s-0.661 1.076-0.661 1.988l16.149-0.021 0.018 1.423-18.294-0c-0.798 0-1.442 0.645-1.442 1.444v18.459c0 0.797 0.645 1.444 1.442 1.444h18.259l0.014 1.444zM4.458 11.149h2.46c0.204 0 0.369 0.165 0.369 0.369v2.46c0 0.204-0.165 0.369-0.369 0.369h-2.46c-0.204 0-0.369-0.165-0.369-0.369v-2.461c0-0.204 0.165-0.369 0.369-0.369zM8.579 11.149h2.46c0.204 0 0.369 0.165 0.369 0.369v2.46c0 0.204-0.165 0.369-0.369 0.369h-2.46c-0.204 0-0.369-0.165-0.369-0.369l0-2.461c0-0.204 0.165-0.369 0.369-0.369zM12.684 11.149h2.46c0.204 0 0.369 0.165 0.369 0.369v2.46c0 0.204-0.165 0.369-0.369 0.369h-2.46c-0.204 0-0.369-0.165-0.369-0.369l0-2.461c0-0.204 0.166-0.369 0.369-0.369zM16.681 11.149h2.46c0.204 0 0.369 0.165 0.369 0.369v2.46c0 0.204-0.165 0.369-0.369 0.369h-2.46c-0.204 0-0.369-0.165-0.369-0.369l0-2.461c0-0.204 0.165-0.369 0.369-0.369zM4.458 15.116h4.52c0.204 0 0.369 0.165 0.369 0.369v2.46c0 0.204-0.165 0.369-0.369 0.369h-4.52c-0.204 0-0.369-0.165-0.369-0.369v-2.46c0-0.204 0.165-0.369 0.369-0.369zM10.485 15.116h2.46c0.204 0 0.369 0.165 0.369 0.369v2.46c0 0.204-0.165 0.369-0.369 0.369h-2.46c-0.204 0-0.369-0.165-0.369-0.369v-2.46c0-0.204 0.165-0.369 0.369-0.369zM14.575 15.116h2.46c0.204 0 0.369 0.165 0.369 0.369v2.46c0 0.204-0.165 0.369-0.369 0.369h-2.46c-0.204 0-0.369-0.165-0.369-0.369v-2.46c0.001-0.204 0.166-0.369 0.369-0.369zM4.458 19.175h6.581c0.204 0 0.369 0.165 0.369 0.369v2.46c0 0.204-0.165 0.369-0.369 0.369h-6.581c-0.204 0-0.369-0.165-0.369-0.369v-2.46c0-0.204 0.165-0.369 0.369-0.369zM12.638 19.175h2.46c0.204 0 0.369 0.165 0.369 0.369v2.46c0 0.204-0.165 0.369-0.369 0.369h-2.46c-0.204 0-0.369-0.165-0.369-0.369v-2.46c-0-0.204 0.165-0.369 0.369-0.369zM16.666 19.175h2.46c0.204 0 0.369 0.165 0.369 0.369v2.46c0 0.204-0.165 0.369-0.369 0.369h-2.46c-0.204 0-0.369-0.165-0.369-0.369v-2.46c0.001-0.204 0.166-0.369 0.369-0.369zM20.664 19.175h0.738v3.198h-0.738c-0.204 0-0.369-0.165-0.369-0.369v-2.46c0-0.204 0.165-0.369 0.369-0.369zM4.458 23.357h3.075c0.204 0 0.369 0.165 0.369 0.369v2.46c0 0.204-0.165 0.369-0.369 0.369h-3.075c-0.204 0-0.369-0.165-0.369-0.369v-2.46c0-0.204 0.165-0.369 0.369-0.369zM9.193 23.357h2.552c0.204 0 0.369 0.165 0.369 0.369v2.46c0 0.204-0.165 0.369-0.369 0.369h-2.552c-0.204 0-0.369-0.165-0.369-0.369v-2.46c0-0.204 0.166-0.369 0.369-0.369zM13.345 23.357h8.057v3.198h-8.057c-0.204 0-0.369-0.165-0.369-0.369v-2.46c-0-0.204 0.165-0.369 0.369-0.369zM20.71 11.241h0.707v3.198h-0.707c-0.204 0-0.369-0.165-0.369-0.369v-2.46c-0-0.203 0.165-0.369 0.369-0.369zM18.573 15.116h2.46c0.204 0 0.369 0.165 0.369 0.369v2.46c0 0.204-0.165 0.369-0.369 0.369h-2.46c-0.204 0-0.369-0.165-0.369-0.369v-2.46c0-0.204 0.165-0.369 0.369-0.369z"></path>
</svg>
