<?xml version="1.0" encoding="utf-8"?>
<!-- Generated by IcoMoon.io -->
<!DOCTYPE svg PUBLIC "-//W3C//DTD SVG 1.1//EN" "http://www.w3.org/Graphics/SVG/1.1/DTD/svg11.dtd">
<svg version="1.1" xmlns="http://www.w3.org/2000/svg" xmlns:xlink="http://www.w3.org/1999/xlink" width="24" height="32" viewBox="0 0 24 32">
<path d="M16.734 24.837l-0.007-8.352c-0.003-3.864-3.067-7.010-6.896-7.15 0-2.828 1.439-5.568 4.259-5.568 3.409 0 3.838 1.711 6.878 1.711 2.649 0 5.567-1.657 5.567-4.473 0-1.343-1.567-1.315-1.567-0.028 0 1.632-1.837 2.909-4 2.909-3.059 0-3.544-1.748-6.855-1.748-4.223 0-6.080 3.51-6.080 7.356-3.221 0.702-5.632 3.572-5.629 7.003l0.007 8.352c0.002 2.61 1.4 4.892 3.488 6.142 1.076 0.644 2.335 1.014 3.68 1.013 3.955-0.003 7.159-3.212 7.155-7.168zM9.556 19.214c-0.303 0.008-0.589-0.072-0.831-0.217-0.436-0.261-0.734-0.733-0.749-1.279l-0.104-3.831c-0.023-0.849 0.647-1.557 1.496-1.58s1.557 0.647 1.58 1.496l0.104 3.831c0.023 0.849-0.647 1.557-1.496 1.58z"></path>
</svg>
