<?xml version="1.0" encoding="UTF-8"?>
<svg width="50px" height="50px" viewBox="0 0 50 50" version="1.1" xmlns="http://www.w3.org/2000/svg" xmlns:xlink="http://www.w3.org/1999/xlink">
    <!-- Generator: Sketch 43.2 (39069) - http://www.bohemiancoding.com/sketch -->
    <title>mouse</title>
    <desc>Created with Sketch.</desc>
    <defs></defs>
    <g id="Page-1" stroke="none" stroke-width="1" fill="none" fill-rule="evenodd">
        <g id="mouse" fill-rule="nonzero" fill="#000000">
            <path d="M31.2898592,38.6257675 L31.2789709,25.6344997 C31.2743045,19.6241718 26.5083509,14.7306698 20.5524644,14.5129043 C20.5524644,10.1140411 22.7907827,5.85205907 27.1772021,5.85205907 C32.4797921,5.85205907 33.1470879,8.51346463 37.8757103,8.51346463 C41.9961447,8.51346463 46.535,5.93605433 46.535,1.55585676 C46.535,-0.533136619 44.0975818,-0.489583518 44.0975818,1.51230366 C44.0975818,4.05082725 41.2401873,6.03715975 37.8757103,6.03715975 C33.117534,6.03715975 32.3631321,3.31820188 27.2129779,3.31820188 C20.644237,3.31820188 17.7557331,8.77789417 17.7557331,14.7602237 C12.745571,15.8521621 8.99533795,20.316355 9.00000435,25.6531653 L9.01089263,38.6444331 C9.01400356,42.7042043 11.1885477,46.253782 14.4363646,48.1981169 C16.1100481,49.1998382 18.0683821,49.7753613 20.1604865,49.7738059 C26.312362,49.7691395 31.2960811,44.777643 31.2898592,38.624212 L31.2898592,38.6257675 Z M20.1247107,29.8793716 C19.6534039,29.8918153 19.2085401,29.7673779 18.8321169,29.541835 C18.1539329,29.1358579 17.6904035,28.4016771 17.6670714,27.5523916 L17.5053028,21.5933941 C17.469527,20.2728019 18.5116905,19.1715306 19.8322827,19.1357548 C21.152875,19.0999791 22.2541462,20.1421426 22.289922,21.4627348 L22.4516907,27.4217323 C22.4874664,28.7423245 21.4453029,29.8435958 20.1247107,29.8793716 Z" id="Shape"></path>
        </g>
    </g>
</svg>