<?xml version="1.0" encoding="utf-8"?>
<!-- Generated by IcoMoon.io -->
<!DOCTYPE svg PUBLIC "-//W3C//DTD SVG 1.1//EN" "http://www.w3.org/Graphics/SVG/1.1/DTD/svg11.dtd">
<svg version="1.1" xmlns="http://www.w3.org/2000/svg" xmlns:xlink="http://www.w3.org/1999/xlink" width="32" height="32" viewBox="0 0 32 32">
<path d="M23.018 6.764l-6.927-6.846-6.84 6.845 4.583-0.001v6.111h4.715l0.001-6.11 4.468 0.001zM12.934 13.474l-6.112 0.001 0.002-4.584-6.901 6.896 6.902 6.871-0.001-4.468 6.11 0.001v-4.717zM19.27 18.309l6.11-0.001-0.001 4.583 6.846-6.839-6.846-6.927 0.001 4.468-6.111-0 0.001 4.716zM18.518 25.020l0.002-6.111-4.716 0 0.001 6.11-4.468-0.001 6.871 6.902 6.895-6.902-4.584 0.002z"></path>
</svg>
