<?xml version="1.0" encoding="UTF-8"?>
<svg width="34px" height="34px" viewBox="0 0 34 34" version="1.1" xmlns="http://www.w3.org/2000/svg" xmlns:xlink="http://www.w3.org/1999/xlink">
    <!-- Generator: Sketch 43.2 (39069) - http://www.bohemiancoding.com/sketch -->
    <title>position</title>
    <desc>Created with Sketch.</desc>
    <defs></defs>
    <g id="Page-1" stroke="none" stroke-width="1" fill="none" fill-rule="evenodd">
        <g id="position" fill-rule="nonzero" fill="#000000">
            <path d="M24.3090211,7.20586961 L17.0178936,0 L9.81833942,7.20481704 L14.6422513,7.20376447 L14.6422513,13.6359978 L19.6051019,13.6359978 L19.6061544,7.20481704 L24.3090211,7.20586961 Z M13.6949415,14.2685902 L7.26165563,14.2696427 L7.26376076,9.44467835 L0,16.7031763 L7.26481332,23.93536 L7.26376076,19.2324933 L13.6949415,19.2335459 L13.6949415,14.2685902 L13.6949415,14.2685902 Z M20.3640022,19.3577487 L26.795183,19.3566962 L26.7941304,24.180608 L34,16.9821064 L26.7941304,9.69097889 L26.795183,14.3938456 L20.3629497,14.3938456 L20.3640022,19.3577487 L20.3640022,19.3577487 Z M19.5724723,26.4215219 L19.5745774,19.9892886 L14.6106743,19.9892886 L14.6117268,26.4204693 L9.90886013,26.4194168 L17.1410439,33.6842301 L24.3984893,26.4194168 L19.5735249,26.4215219 L19.5724723,26.4215219 Z" id="Shape"></path>
        </g>
    </g>
</svg>