<?xml version="1.0" encoding="UTF-8"?>
<svg width="34px" height="34px" viewBox="0 0 34 34" version="1.1" xmlns="http://www.w3.org/2000/svg" xmlns:xlink="http://www.w3.org/1999/xlink">
    <!-- Generator: Sketch 43.2 (39069) - http://www.bohemiancoding.com/sketch -->
    <title>resize</title>
    <desc>Created with Sketch.</desc>
    <defs></defs>
    <g id="Page-1" stroke="none" stroke-width="1" fill="none" fill-rule="evenodd">
        <g id="resize" fill-rule="nonzero" fill="#000000">
            <path d="M31.6538385,13.6471165 L31.5870192,2.2853695 L20.297866,2.28949415 L24.0793405,6.06931877 L19.0381995,11.1104598 L22.9277396,15 L27.9688807,9.96050881 L31.6538385,13.6471165 Z M15,10.3774471 L10.2129992,5.59201253 L13.8042287,2.00391543 L3,2 L3.02427565,12.7854346 L6.52231793,9.28582616 L11.3061864,14.0712608 L15,10.3774471 L15,10.3774471 Z M18.6750072,23.0032137 L23.8612779,28.187787 L19.9709384,32.0764292 L31.5850956,32.0823699 L31.6538385,20.3935291 L27.8627943,24.1862707 L22.6765236,19 L18.6750072,23.0032137 L18.6750072,23.0032137 Z M10.871619,28.0894722 L16,22.964447 L12.0436046,19.0080516 L6.91857934,24.1347547 L3.17107762,20.3855752 L3.14507078,31.9401624 L14.7197923,31.9342899 L10.8724579,28.0903112 L10.871619,28.0894722 Z" id="Shape"></path>
        </g>
    </g>
</svg>