<?xml version="1.0" encoding="utf-8"?>
<!-- Generated by IcoMoon.io -->
<!DOCTYPE svg PUBLIC "-//W3C//DTD SVG 1.1//EN" "http://www.w3.org/Graphics/SVG/1.1/DTD/svg11.dtd">
<svg version="1.1" xmlns="http://www.w3.org/2000/svg" xmlns:xlink="http://www.w3.org/1999/xlink" width="32" height="32" viewBox="0 0 32 32">
<path d="M12.616 0.489l-12.062 0.071 0.004 11.984 4.013-4.014 5.351 5.351 4.129-4.129-5.351-5.351 3.914-3.912zM9.925 18.091l-5.351 5.353-4.013-4.016-0.004 12.084 12.062-0.028-3.913-3.912 5.351-5.35-4.131-4.131zM22.077 13.882l5.35-5.351 4.013 4.014 0.006-11.984-12.062-0.071 3.913 3.912-5.351 5.351 4.131 4.129zM27.426 23.444l-5.35-5.353-4.13 4.13 5.352 5.35-3.913 3.912 12.062 0.028-0.006-12.084-4.014 4.017z"></path>
</svg>
