<svg version="1.1" xmlns="http://www.w3.org/2000/svg" xmlns:xlink="http://www.w3.org/1999/xlink" width="18" height="18" viewBox="0 0 28 32">
<path d="M14.065 28.279c7.809 0 14.139-6.331 14.139-14.139s-6.33-14.14-14.139-14.14-14.14 6.33-14.14 14.14c0 3.453 1.684 7.063 3.74 9.518 1.442-1.449 2.457-2.384 3.588-3.348-1.478-1.631-2.379-3.795-2.379-6.17 0-5.076 4.115-9.191 9.191-9.191s9.191 4.115 9.191 9.191-4.115 9.191-9.191 9.191v0c-0.359 0-0.48 0.050-0.48 0.050l0-3.882-6.665 6.251 6.665 6.251v-3.733c0 0-0.305 0.031 0.48 0.012z"></path>
</svg>
