<?xml version="1.0" encoding="UTF-8"?>
<svg width="34px" height="34px" viewBox="0 0 34 34" version="1.1" xmlns="http://www.w3.org/2000/svg" xmlns:xlink="http://www.w3.org/1999/xlink">
    <!-- Generator: Sketch 43.2 (39069) - http://www.bohemiancoding.com/sketch -->
    <title>rotate</title>
    <desc>Created with Sketch.</desc>
    <defs></defs>
    <g id="Page-1" stroke="none" stroke-width="1" fill="none" fill-rule="evenodd">
        <g id="rotate" fill-rule="nonzero" fill="#000000">
            <path d="M16.6976969,29.3944252 C24.2624293,29.3944252 30.3944252,23.2614606 30.3944252,15.6976969 C30.3944252,8.13393331 24.2624293,2 16.6976969,2 C9.13296459,2 3,8.13199588 3,15.6976969 C3,19.0426862 4.63132402,22.5397644 6.62301178,24.9179713 C8.01990563,23.5142964 9.00315615,22.6085435 10.0987782,21.6746977 C8.66701041,20.0947158 7.79419393,17.9984063 7.79419393,15.6976969 C7.79419393,10.7804756 11.7804756,6.79419393 16.6976969,6.79419393 C21.6149183,6.79419393 25.6012,10.7804756 25.6012,15.6976969 C25.6012,20.6149183 21.6149183,24.6012 16.6976969,24.6012 L16.6976969,24.6012 C16.3499266,24.6012 16.2327115,24.6496359 16.2327115,24.6496359 L16.2327115,20.889066 L9.77619449,26.944533 L16.2327115,33 L16.2327115,29.3837693 C16.2327115,29.3837693 15.937252,29.4137996 16.6976969,29.3953939 L16.6976969,29.3944252 Z" id="Shape"></path>
        </g>
    </g>
</svg>