<?xml version="1.0" standalone="no"?>
<!DOCTYPE svg PUBLIC "-//W3C//DTD SVG 1.1//EN" "http://www.w3.org/Graphics/SVG/1.1/DTD/svg11.dtd" >
<svg xmlns="http://www.w3.org/2000/svg">
<metadata>Generated by IcoMoon</metadata>
<defs>
<font id="icons" horiz-adv-x="1024">
<font-face units-per-em="1024" ascent="960" descent="-64" />
<missing-glyph horiz-adv-x="1024" />
<glyph unicode="&#x20;" d="" horiz-adv-x="512" />
<glyph unicode="&#xe000;" d="M893.028 204.732v73.896h-765.058v-73.896h765.058zM806.092 133.032v226.040h-582.488v-226.042h582.488zM803.918 619.862v73.898h-569.448v-73.898h569.448zM716.978 545.99v226.040h-386.876v-226.040h386.876z" />
<glyph unicode="&#xe001;" d="M736.566 743.55l-221.668 219.068-218.87-219.040 146.66 0.028v-195.54h150.87l0.028 195.512 142.98-0.028zM413.894 528.828l-195.57-0.028 0.054 146.684-220.846-220.672 220.874-219.86-0.028 142.974 195.516-0.028v150.93zM616.646 374.108l195.506 0.028-0.028-146.66 219.068 218.842-219.068 221.668 0.034-142.974-195.54 0.004 0.028-150.908zM592.568 159.358l0.058 195.54-150.928-0.004 0.028-195.512-142.978 0.034 219.86-220.874 220.648 220.874-146.688-0.058z" horiz-adv-x="1032" />
<glyph unicode="&#xe002;" d="M403.722 944.352l-385.982-2.286 0.14-383.502 128.42 128.452 171.248-171.248 132.14 132.14-171.216 171.248 125.25 125.196zM317.602 381.084l-171.248-171.302-128.42 128.506-0.14-386.672 385.982 0.884-125.228 125.196 171.248 171.194-132.194 132.194zM706.452 515.79l171.194 171.248 128.42-128.452 0.194 383.502-385.982 2.286 125.228-125.196-171.248-171.248 132.194-132.14zM877.646 209.782l-171.194 171.302-132.172-132.172 171.248-171.194-125.228-125.196 385.982-0.884-0.194 386.672-128.442-128.528z" />
<glyph unicode="&#xe003;" d="M758.298 835.058h-73.896v-765.058h73.896v765.058zM829.998 748.122h-226.040v-582.488h226.042v582.488zM343.168 745.948h-73.898v-569.448h73.898v569.448zM417.040 659.008h-226.040v-386.876h226.040v386.876z" />
<glyph unicode="&#xe004;" d="M450.088 55.070c249.89 0 452.456 202.576 452.456 452.464s-202.572 452.466-452.46 452.466-452.466-202.576-452.466-452.466c0-110.482 53.886-226.008 119.666-304.576 46.142 46.362 78.628 76.286 114.816 107.134-47.304 52.196-76.124 121.452-76.124 197.442 0 162.43 131.676 294.102 294.102 294.102 162.43 0 294.102-131.672 294.102-294.102s-131.672-294.102-294.102-294.102v0c-11.488 0-15.346-1.586-15.346-1.586l0.006 124.228-213.268-200.036 213.268-200.038v119.466c0 0-9.754-0.992 15.35-0.396z" horiz-adv-x="900" />
<glyph unicode="&#xe005;" d="M535.722 798.644l-385.982-2.286 0.14-383.502 128.42 128.452 251.248-251.25c0 0 13.476 46.418 54.454 87.942 37.5 38 77.688 44.2 77.688 44.2l-251.218 251.248 125.25 125.196zM927 205.266c0-96.928-78.57-175.498-175.498-175.498s-175.498 78.57-175.498 175.498 78.57 175.498 175.498 175.498 175.498-78.57 175.498-175.498z" />
<glyph unicode="&#xe006;" d="M541.018 29.768l385.982 2.286-0.14 383.502-128.42-128.452-251.248 251.25c0 0-13.476-46.418-54.454-87.942-37.5-38-77.688-44.2-77.688-44.2l251.218-251.248-125.25-125.196zM149.74 623.146c0 96.928 78.57 175.498 175.498 175.498s175.498-78.57 175.498-175.498-78.57-175.498-175.498-175.498-175.498 78.57-175.498 175.498z" />
<glyph unicode="&#xe007;" d="M107.936 224.928l180.992-180.992 316.8 316.736 226.272-226.24v633.568h-633.568l226.272-226.272z" />
<glyph unicode="&#xe008;" d="M735.072 43.936l180.992 180.992-316.736 316.8 226.24 226.272h-633.568v-633.568l226.272 226.272z" />
<glyph unicode="&#xe009;" d="M288.928 852.064l-180.992-180.992 316.736-316.8-226.24-226.272h633.568v633.568l-226.272-226.272z" />
<glyph unicode="&#xe00a;" d="M916.064 671.072l-180.992 180.992-316.8-316.736-226.272 226.24v-633.568h633.568l-226.272 226.272z" />
<glyph unicode="&#xe00b;" d="M0 832v-768h1024v768h-1024zM960 128h-64l-192 288-128-96-256 320-192-512h-64v640h896v-640zM704 608c0 53.019 42.981 96 96 96s96-42.981 96-96c0-53.019-42.981-96-96-96-53.019 0-96 42.981-96 96z" />
<glyph unicode="&#xe00c;" d="M154.012 799.012v-68h704v68h-704zM234.012 740.988v-208h536v208h-536zM236.012 359.012v-68h524v68h-524zM316.012 300.988v-208h356v208h-356z" />
<glyph unicode="&#xe00d;" d="M960 320h-448v-320l-448 448 448 448v-320h448z" />
<glyph unicode="&#xe00e;" d="M153 94h68v704h-68v-704zM211.024 174h208v536h-208v-536zM593 176h68v524h-68v-524zM651.024 256h208v356h-208v-356z" />
<glyph unicode="&#xe00f;" d="M858.012 92.988v68h-704v-68h704zM778.012 151.012v208h-536v-208h536zM776.012 532.988v68h-524v-68h524zM696.012 591.012v208h-356v-208h356z" />
<glyph unicode="&#xe010;" d="M859.024 798h-68v-704h68v704zM801 718h-208v-536h208v536zM419.024 716h-68v-524h68v524zM361 636h-208v-356h208v356z" />
<glyph unicode="&#xe011;" d="M571.024 958h-128v-1024h128v1024zM728 758h-448v-256h448v256zM888 371h-748v-256h748v256z" />
<glyph unicode="&#xe012;" d="M685.848-52.15h-584.734c-50.996 0-92.302 41.386-92.302 92.4v590.708c0 50.998 41.306 92.388 92.302 92.388l26.974-0.978c0 42.208 1.488 64.36 29.982 96.294 28.458 31.912 63.804 47.866 105.986 47.866 20.012 0 42.198-3.392 66.502-10.156 0 0 52.868-17.628 89.572-17.628 56.020 0 94.216 24.626 114.548 73.88 9.526 23.668 19.238 35.526 29.116 35.526 14.138 0 21.242-6.594 21.242-19.836 0-23.396-12.63-49.274-37.842-77.576-33.842-38.482-75.514-57.74-125.012-57.74-38.444 0-104.322 18.082-104.322 18.082-26.758 6.482-45.832 9.734-57.196 9.734-27.4 0-50.842-11.706-70.37-35.182-19.544-23.45-21.138-34.428-21.138-63.602l516.77 0.662 0.582-45.54-585.394 0.010c-25.536 0-46.152-20.652-46.152-46.206v-590.704c0-25.512 20.64-46.206 46.152-46.206h584.286l0.448-46.196zM142.652 603.23h78.73c6.532 0 11.812-5.288 11.812-11.812v-78.73c0-6.532-5.288-11.812-11.812-11.812h-78.73c-6.532 0-11.812 5.288-11.812 11.812v78.74c0 6.518 5.288 11.802 11.812 11.802zM274.512 603.23h78.73c6.532 0 11.812-5.288 11.812-11.812v-78.73c0-6.532-5.288-11.812-11.812-11.812h-78.73c-6.532 0-11.812 5.288-11.812 11.812l0.004 78.74c0 6.518 5.284 11.802 11.808 11.802zM405.88 603.23h78.73c6.532 0 11.812-5.288 11.812-11.812v-78.73c0-6.532-5.288-11.812-11.812-11.812h-78.73c-6.532 0-11.812 5.288-11.812 11.812l0.004 78.74c0 6.518 5.3 11.802 11.808 11.802zM533.808 603.23h78.73c6.532 0 11.812-5.288 11.812-11.812v-78.73c0-6.532-5.288-11.812-11.812-11.812h-78.73c-6.532 0-11.812 5.288-11.812 11.812l0.016 78.74c0 6.518 5.29 11.802 11.796 11.802zM142.652 476.292h144.654c6.532 0 11.812-5.288 11.812-11.812v-78.73c0-6.532-5.288-11.812-11.812-11.812h-144.654c-6.532 0-11.812 5.288-11.812 11.812v78.73c0 6.528 5.288 11.812 11.812 11.812zM335.522 476.292h78.73c6.532 0 11.812-5.288 11.812-11.812v-78.73c0-6.532-5.288-11.812-11.812-11.812h-78.73c-6.532 0-11.812 5.288-11.812 11.812v78.73c0 6.528 5.284 11.812 11.812 11.812zM466.392 476.292h78.73c6.532 0 11.812-5.288 11.812-11.812v-78.73c0-6.532-5.288-11.812-11.812-11.812h-78.73c-6.532 0-11.812 5.288-11.812 11.812v78.73c0.022 6.528 5.31 11.812 11.812 11.812zM142.652 346.396h210.59c6.532 0 11.812-5.284 11.812-11.812v-78.73c0-6.532-5.288-11.812-11.812-11.812h-210.59c-6.532 0-11.812 5.288-11.812 11.812v78.73c0 6.528 5.288 11.812 11.812 11.812zM404.412 346.396h78.73c6.532 0 11.812-5.284 11.812-11.812v-78.73c0-6.532-5.284-11.812-11.812-11.812h-78.73c-6.532 0-11.812 5.288-11.812 11.812v78.73c-0.008 6.528 5.28 11.812 11.812 11.812zM533.31 346.396h78.73c6.532 0 11.812-5.284 11.812-11.812v-78.73c0-6.532-5.284-11.812-11.812-11.812h-78.73c-6.532 0-11.812 5.288-11.812 11.812v78.73c0.018 6.528 5.302 11.812 11.812 11.812zM661.252 346.396h23.61v-102.342h-23.61c-6.532 0-11.812 5.288-11.812 11.812v78.73c0.004 6.516 5.288 11.8 11.812 11.8zM142.652 212.568h98.406c6.532 0 11.812-5.288 11.812-11.812v-78.73c0-6.532-5.284-11.812-11.812-11.812h-98.406c-6.532 0-11.812 5.284-11.812 11.812v78.73c0 6.528 5.288 11.812 11.812 11.812zM294.188 212.568h81.676c6.532 0 11.812-5.288 11.812-11.812v-78.73c0-6.532-5.288-11.812-11.812-11.812h-81.676c-6.532 0-11.812 5.284-11.812 11.812v78.73c0.004 6.528 5.3 11.812 11.812 11.812zM427.046 212.568h257.824v-102.342h-257.824c-6.532 0-11.812 5.284-11.812 11.812v78.73c-0.004 6.516 5.284 11.8 11.812 11.8zM662.73 600.29h22.638v-102.342h-22.638c-6.532 0-11.812 5.284-11.812 11.812v78.73c-0.008 6.51 5.28 11.8 11.812 11.8zM594.338 476.292h78.73c6.532 0 11.812-5.288 11.812-11.812v-78.73c0-6.532-5.288-11.812-11.812-11.812h-78.73c-6.532 0-11.812 5.288-11.812 11.812v78.73c0 6.528 5.284 11.812 11.812 11.812z" horiz-adv-x="694" />
<glyph unicode="&#xe013;" d="M535.482 165.202l-0.232 267.26c-0.106 123.652-98.134 224.326-220.67 228.802 0 90.504 46.036 178.166 136.284 178.166 109.090 0 122.816-54.738 220.090-54.738 84.754-0.002 178.154 53.016 178.154 143.134 0 42.97-50.132 42.076-50.132 0.894 0-52.22-58.784-93.102-128.014-93.102-97.876 0-113.394 55.93-219.364 55.93-135.14 0-194.568-112.328-194.568-235.39-103.078-22.478-180.218-114.294-180.126-224.092l0.232-267.26c0.072-83.524 44.804-156.56 111.602-196.56 34.426-20.614 74.724-32.45 117.768-32.414 126.568 0.108 229.086 102.798 228.976 229.37zM305.806 345.142c-9.706-0.262-18.84 2.302-26.596 6.948-13.962 8.36-23.484 23.462-23.96 40.934l-3.332 122.58c-0.738 27.182 20.7 49.818 47.882 50.554 27.18 0.738 49.818-20.696 50.556-47.88l3.332-122.578c0.74-27.184-20.7-49.816-47.882-50.558z" horiz-adv-x="772" />
<glyph unicode="&#xe014;" d="M847.156 470.99l-566.678 425.010v-708.35l176.866 166.784 176.87-354.434 150.264 75.132-176.868 354.436z" />
<glyph unicode="&#xe015;" d="M914.436 291.23l-137.188 92.292h-84.58l146.494-112.37h-152.742c-4.396 0-8.316-2.24-10.342-5.732l-35.16-96.3h-257.826l-35.204 96.3c-1.94 3.492-5.948 5.732-10.342 5.732h-152.696l146.536 112.37-84.618-0.002-137.144-92.292c-20.422-12.192-32.618-40.33-27.144-62.434l24.172-132.448c5.47-22.148 29.772-40.286 53.902-40.286h702.872c24.216 0 48.474 18.14 53.944 40.286l24.172 132.448c5.556 22.15-6.68 50.24-27.106 62.436zM736.102 567.93h-142.23v220.602h-163.73v-220.602h-142.186l224.052-210.264 224.094 210.264z" />
<glyph unicode="&#xe016;" d="M1026 388.976v128h-1024v-128h1024zM826 232v448h-256v-448h256zM439 72v748h-256v-748h256z" />
<glyph unicode="&#xe017;" d="M982 982h-128v-1024h128v1024zM790 770h-448v-256h448v256zM790 395h-748v-256h748v256z" />
<glyph unicode="&#xe018;" d="M0 940v-128h1024v128h-1024zM212 748v-448h256v448h-256zM587 748v-748h256v748h-256z" />
<glyph unicode="&#xe019;" d="M42-42h128v1024h-128v-1024zM234 170h448v256h-448v-256zM234 545h748v256h-748v-256z" />
<glyph unicode="&#xe01a;" d="M1024 0v128h-1024v-128h1024zM812 192v448h-256v-448h256zM437 192v748h-256v-748h256z" />
<glyph unicode="&#xe096;" d="M1024 640l-512 256-512-256 512-256 512 256zM512 811.030l342.058-171.030-342.058-171.030-342.058 171.030 342.058 171.030zM921.444 499.278l102.556-51.278-512-256-512 256 102.556 51.278 409.444-204.722zM921.444 307.278l102.556-51.278-512-256-512 256 102.556 51.278 409.444-204.722z" />
<glyph unicode="&#xf013;" d="M585.142 448q0 60.572-42.858 103.428t-103.428 42.858-103.428-42.858-42.858-103.428 42.858-103.428 103.428-42.858 103.428 42.858 42.858 103.428zM877.714 510.286v-126.858q0-6.858-4.572-13.142t-11.428-7.428l-105.714-16q-10.858-30.858-22.286-52 20-28.572 61.142-78.858 5.714-6.858 5.714-14.286t-5.142-13.142q-15.428-21.142-56.572-61.714t-53.714-40.572q-6.858 0-14.858 5.142l-78.858 61.714q-25.142-13.142-52-21.714-9.142-77.714-16.572-106.286-4-16-20.572-16h-126.858q-8 0-14 4.858t-6.572 12.286l-16 105.142q-28 9.142-51.428 21.142l-80.572-61.142q-5.714-5.142-14.286-5.142-8 0-14.286 6.286-72 65.142-94.286 96-4 5.714-4 13.142 0 6.858 4.572 13.142 8.572 12 29.142 38t30.858 40.286q-15.428 28.572-23.428 56.572l-104.572 15.428q-7.428 1.142-12 7.142t-4.572 13.428v126.858q0 6.858 4.572 13.142t10.858 7.428l106.286 16q8 26.286 22.286 52.572-22.858 32.572-61.142 78.858-5.714 6.858-5.714 13.714 0 5.714 5.142 13.142 14.858 20.572 56.286 61.428t54 40.858q7.428 0 14.858-5.714l78.858-61.142q25.142 13.142 52 21.714 9.142 77.714 16.572 106.286 4 16 20.572 16h126.858q8 0 14-4.858t6.572-12.286l16-105.142q28-9.142 51.428-21.142l81.142 61.142q5.142 5.142 13.714 5.142 7.428 0 14.286-5.714 73.714-68 94.286-97.142 4-4.572 4-12.572 0-6.858-4.572-13.142-8.572-12-29.142-38t-30.858-40.286q14.858-28.572 23.428-56l104.572-16q7.428-1.142 12-7.142t4.572-13.428z" horiz-adv-x="876" />
</font>
</defs>
</svg>
